<svg id="Layer_1" data-name="Layer 1" xmlns="http://www.w3.org/2000/svg" xmlns:xlink="http://www.w3.org/1999/xlink" viewBox="0 0 18 18"><defs><style>.cls-1{stroke:#000;stroke-miterlimit:253.7;stroke-width:0.09px;}.cls-2,.cls-3{fill-rule:evenodd;}.cls-3{fill:url(#linear-gradient);}</style><linearGradient id="linear-gradient" x1="-291.5" y1="399.23" x2="-291.37" y2="399.2" gradientTransform="matrix(63.42, 0, 0, -63.42, 18490.34, 25323.78)" gradientUnits="userSpaceOnUse"><stop offset="0" stop-color="#e70030"/><stop offset="0.39" stop-color="#ff4848"/><stop offset="0.62" stop-color="#ff2f2f"/><stop offset="0.79" stop-color="#ff1c1c"/><stop offset="0.97" stop-color="#c01515"/><stop offset="1" stop-color="#a10d0d"/></linearGradient></defs><title>flag</title><g id="Layer_1-2" data-name="Layer_1"><rect class="cls-1" x="9.82" y="7.79" width="1.95" height="5.89"/><path class="cls-2" d="M6.38,12.51h6.55a1,1,0,0,1,1.12.94v1.1a1,1,0,0,1-1.12.94H6.38a1,1,0,0,1-1.12-.94v-1.1A1,1,0,0,1,6.38,12.51Z"/><path class="cls-2" d="M2.6,14.43H16.81a1.11,1.11,0,0,1,1.19,1V17a1.11,1.11,0,0,1-1.19,1H2.6a1.11,1.11,0,0,1-1.19-1V15.42A1.11,1.11,0,0,1,2.6,14.43Z"/><path class="cls-3" d="M11.94,0V9.48C10,5.74,2.21,9.25,0,2a9.63,9.63,0,0,0,5.39-.51C8.25.34,10.36.66,11.94,0Z"/></g></svg>