<svg id="Layer_1" data-name="Layer 1" xmlns="http://www.w3.org/2000/svg" xmlns:xlink="http://www.w3.org/1999/xlink" viewBox="0 0 15.06 15.06"><defs><style>.cls-1,.cls-2{stroke:#000;stroke-miterlimit:266.03;stroke-width:0.06px;}.cls-1{fill-rule:evenodd;}.cls-3{fill:url(#radial-gradient);}.cls-4{fill:#fff;}</style><radialGradient id="radial-gradient" cx="-295.43" cy="396.03" r="0.15" gradientTransform="matrix(17.09, 0, 0, -17.09, 5054.49, 6775.72)" gradientUnits="userSpaceOnUse"><stop offset="0" stop-color="#fff"/><stop offset="0.13" stop-color="#e5e5e1"/><stop offset="0.29" stop-color="#ccc8c8"/><stop offset="0.44" stop-color="#b2b4b4"/><stop offset="0.75" stop-color="#464d43"/><stop offset="1"/></radialGradient></defs><title>mine</title><g id="Layer_1-2" data-name="Layer_1"><polygon class="cls-1" points="0.14 8.01 0.03 7.54 0.14 7.06 7.08 7.06 7.08 0.12 7.55 0.03 8.02 0.12 8.02 7.06 14.96 7.06 15.03 7.54 14.96 8.01 8.02 8.01 8.02 14.95 7.57 15.03 7.08 14.95 7.08 8.01 0.14 8.01"/><circle class="cls-2" cx="3.82" cy="3.75" r="0.75"/><polygon class="cls-1" points="2.99 12.71 2.58 12.48 2.37 12.09 6.93 7.53 2.37 2.97 2.63 2.58 2.99 2.35 7.55 6.91 12.11 2.35 12.5 2.59 12.73 2.97 8.17 7.53 12.73 12.09 12.52 12.5 12.11 12.71 7.55 8.16 2.99 12.71"/><circle class="cls-2" cx="7.59" cy="2.26" r="0.75"/><circle class="cls-3" cx="7.55" cy="7.45" r="5.17"/><circle class="cls-2" cx="11.13" cy="3.95" r="0.75"/><circle class="cls-2" cx="3.94" cy="11.12" r="0.75"/><circle class="cls-2" cx="11.13" cy="11.12" r="0.75"/><circle class="cls-4" cx="6.64" cy="6.79" r="0.7"/></g></svg>